<?xml version="1.0" encoding="UTF-8"?>
<svg id="Layer_1" xmlns="http://www.w3.org/2000/svg" version="1.1" viewBox="0 0 626 626">
  <!-- Generator: Adobe Illustrator 30.2.1, SVG Export Plug-In . SVG Version: 2.1.1 Build 1)  -->
  <defs>
    <style>
      .st0 {
        fill: #fff;
      }
    </style>
  </defs>
  <g id="Layer_11" data-name="Layer_1">
    <path class="st0" d="M313,32c-155.19,0-281,125.81-281,281s125.81,281,281,281,281-125.81,281-281S468.19,32,313,32ZM235.33,483.78c0,.84-.69,1.53-1.54,1.53h-69.75c-.85,0-1.54-.69-1.54-1.53v-229.28c0-.85.69-1.54,1.54-1.54h69.75c.85,0,1.54.69,1.54,1.54v229.28ZM198.92,235.19c-26.1,0-47.25-21.16-47.25-47.25s21.15-47.25,47.25-47.25,47.25,21.15,47.25,47.25-21.16,47.25-47.25,47.25ZM488.42,334.74c-.05,2.38-.14,4.75-.23,7.12-.11,2.69-.21,5.36-.24,8.05-.04,3.66.17,7.32.2,10.96.04,3.94,0,7.88,0,11.81v105.12c0,4.19-3.31,7.5-7.5,7.5h-57.86c-4.07,0-7.5-3.31-7.5-7.5v-106.27c0-14.97,1.9-31.16-6.88-44.23-.97-1.43-2.03-2.8-3.19-4.09-7.29-8.09-18.63-12.65-29.38-10.9-8.37,1.36-15.85,6.29-21.6,12.53-3.65,3.97-6.68,8.47-9.36,13.14-1.42,2.48-6.01,8.36-6.01,11.26v127.16c0,4.96-3.94,8.9-8.9,8.9h-54.94c-4.96,0-8.9-3.94-8.9-8.9v-214.51c0-4.96,3.94-8.9,8.9-8.9h54.94c4.96,0,8.9,3.94,8.9,8.9v33.69c1.91-3.68,4.19-7.12,6.48-10.42,6.62-9.54,14.24-18.82,24.55-24.04,10.04-5.21,21.74-5.84,33.05-5.72,13.74.26,27.73,1.53,40.19,7.25,12.84,5.85,23.39,16.28,31.15,28.23,5.85,9.03,10.17,19.07,12.46,29.5.53,2.42,1.03,4.86,1.35,7.33.32,2.36.37,4.63.32,7.03Z"/>
  </g>
</svg>