<?xml version="1.0" encoding="UTF-8"?>
<svg id="Layer_1" xmlns="http://www.w3.org/2000/svg" version="1.1" viewBox="0 0 2310 512">
  <!-- Generator: Adobe Illustrator 30.1.0, SVG Export Plug-In . SVG Version: 2.1.1 Build 136)  -->
  <defs>
    <style>
      .st0 {
        font-family: Manrope-Bold, Manrope;
        font-size: 301.81px;
        font-weight: 700;
      }
    </style>
  </defs>
  <g>
    <ellipse cx="304.87" cy="191.7" rx="8.34" ry="8.35"/>
    <ellipse cx="392.76" cy="405.16" rx="8.34" ry="8.35"/>
    <ellipse cx="355.1" cy="288.1" rx="8.34" ry="8.35"/>
    <ellipse cx="254.65" cy="288.1" rx="8.34" ry="8.35"/>
    <ellipse cx="225.12" cy="101.61" rx="8.34" ry="8.35"/>
    <path d="M469.41,145.91l-160.05-102.32c-2.68-1.72-6.3-1.72-8.98,0l-48.13,30.76c-1.88,1.19-3.17,3.06-3.65,5.23-.48,2.18-.08,4.42,1.12,6.29,1.54,2.41,4.17,3.85,7.04,3.85,1.59,0,3.01-.45,4.36-1.31l35.16-22.56v48.53l-98.62,63.14-37.9-24.23,38.21-24.43c1.88-1.2,3.18-3.06,3.65-5.24.48-2.18.08-4.41-1.12-6.29-1.54-2.42-4.17-3.86-7.03-3.86-1.59,0-3.14.45-4.49,1.31l-49.21,31.46s0,0,0,0c-.99.63-1.87,1.48-2.54,2.54-.9,1.4-1.32,2.98-1.31,4.53,0,.54.16,205.33.16,205.33,0,2.86,1.35,5.49,3.77,7.04l160.09,102.38c1.38,1.01,3.08,1.62,4.93,1.62,1.65,0,3.19-.49,4.49-1.32,0,0,56.25-35.95,56.25-35.95,1.88-1.2,3.17-3.06,3.65-5.24.48-2.18.08-4.41-1.12-6.29-1.54-2.41-4.17-3.85-7.04-3.85-1.59,0-3.26.45-4.61,1.31l-43.54,27.8v-48.27l99.12-63.45,37.98,24.28-30.08,19.18c-3.88,2.48-5.06,7.65-2.58,11.53,1.54,2.42,4.15,3.86,7.01,3.86,1.59,0,3.13-.45,4.48-1.31l41.16-26.27c2.41-1.54,3.93-4.17,3.93-7.04v-205.35c0-3.23-1.89-6.01-4.59-7.4ZM449.99,153.31l-37.9,24.23-99.12-63.46v-48.21l137.02,87.44ZM296.28,134.22v19.92c0,4.61,3.75,8.35,8.34,8.35s8.34-3.74,8.34-8.35v-20.24l83.63,53.54-91.72,58.64-91.72-58.64,83.13-53.22ZM230.04,303.84c-1.54-2.42-4.18-3.86-7.04-3.86-1.59,0-3.06.45-4.41,1.31l-12.42,7.99v-106.6l90.11,57.71v117.35l-83.13-53.22,14.34-9.17c3.88-2.48,5.01-7.66,2.54-11.53ZM152.77,168.65l36.71,23.37v127.94l-36.71,23.37v-174.68ZM159.83,358.62l37.83-24.18,98.62,63.13v48.49l-136.45-87.44ZM312.97,378.07v-117.35l90.94-58.03v106.6l-12.59-7.99c-1.35-.86-2.95-1.31-4.53-1.31-2.86,0-5.52,1.44-7.06,3.86-2.47,3.87-1.35,9.05,2.53,11.53l14.34,9.17-83.63,53.54ZM457.31,343.54l-36.71-23.58v-127.94l36.71-23.58v175.1Z"/>
  </g>
  <text class="st0" transform="translate(647.33 366.63)"><tspan x="0" y="0">Tesseract</tspan></text>
</svg>